{"glyphs":{":":{"x_min":0,"x_max":279,"ha":279,"o":"m 138 6 l 122 8 q 88 8 88 57 l 88 71 l 91 88 q 91 121 122 121 q 126 123 127 123 l 136 124 l 147 124 q 174 124 185 110 q 196 96 196 67 l 196 62 l 195 61 q 195 58 195 52 q 194 46 194 45 q 194 7 157 7 l 146 6 z m 89 415 l 89 423 q 89 450 99 463 q 109 475 123 475 l 138 478 l 151 478 q 195 478 195 441 l 196 437 l 197 421 l 197 419 l 197 417 l 195 401 q 195 399 195 391 q 195 382 184 371 q 173 360 150 360 l 137 360 q 92 360 92 397 q 90 402 90 405 z"},"$":{"x_min":0,"x_max":551,"ha":551,"o":"m 403 166 l 403 174 l 403 177 l 403 180 q 403 215 380 242 q 337 291 308 291 l 306 291 q 301 291 301 229 l 301 146 l 300 126 l 300 121 l 299 110 q 299 107 299 104 l 298 90 l 298 76 q 298 66 306 66 l 311 66 q 345 66 374 98 q 402 130 402 160 z m 248 468 l 248 476 l 247 487 l 247 492 l 245 511 q 245 615 243 615 l 237 615 q 208 615 183 586 q 158 558 158 524 l 158 521 q 158 484 179 454 q 211 405 241 405 l 243 405 q 248 405 248 449 l 248 465 z m 420 635 q 450 604 450 576 q 450 548 430 548 q 420 548 387 577 q 354 606 325 606 q 308 606 302 590 q 296 573 296 498 q 296 422 308 404 q 313 396 368 362 q 423 327 450 294 q 477 260 477 200 q 477 140 441 94 q 418 64 396 52 q 374 40 347 30 q 320 20 311 12 q 302 4 294 -26 q 287 -56 277 -56 l 267 -56 q 251 -56 243 -29 q 236 -2 219 9 q 203 21 168 32 q 133 43 118 57 q 79 93 79 130 l 79 142 q 79 160 103 160 q 112 160 150 123 q 189 87 228 87 q 249 87 255 113 q 261 138 261 211 q 261 285 251 303 q 242 321 192 351 q 143 382 116 416 q 89 449 89 508 q 89 566 130 613 q 158 645 202 660 l 216 665 q 237 671 244 676 q 252 681 260 705 q 269 730 286 730 q 293 730 310 715 l 317 708 l 330 691 q 338 680 376 660 q 414 641 420 635 z"},"?":{"x_min":0,"x_max":466,"ha":466,"o":"m 212 110 l 226 108 q 260 108 260 71 q 262 67 262 64 l 263 54 l 263 46 q 263 19 251 8 q 240 -4 216 -4 l 207 -4 l 193 -2 q 161 -2 161 43 l 161 63 q 161 107 193 107 l 195 108 l 196 108 l 210 110 z m 409 538 l 409 520 q 409 448 322 362 q 268 308 257 292 q 246 276 244 233 q 242 189 221 189 q 200 189 191 203 q 183 216 183 252 q 183 316 250 394 q 316 471 316 529 q 316 574 288 598 q 260 621 219 621 q 177 621 149 590 q 105 542 89 542 q 61 542 61 582 q 61 622 112 657 q 164 693 221 693 l 240 693 q 307 693 358 648 q 409 603 409 538 z"},"<":{"x_min":0,"x_max":566,"ha":566,"o":"m 495 64 q 495 51 484 51 q 455 51 97 257 q 63 276 63 296 l 63 305 q 63 324 99 344 q 463 542 483 542 q 496 542 496 521 q 496 489 465 469 q 434 449 295 374 q 156 298 156 295 q 156 292 289 222 q 421 152 458 128 q 495 104 495 64 z"},"'":{"x_min":0,"x_max":235,"ha":235,"o":"m 156 572 l 148 522 q 146 502 145 496 q 145 452 116 452 l 107 452 q 83 452 83 579 l 79 644 l 79 650 l 78 660 l 78 666 q 78 688 87 696 q 95 705 121 705 l 130 705 q 164 705 164 678 l 164 663 l 164 660 l 164 654 l 163 651 l 163 645 l 161 623 l 161 620 l 159 601 q 158 595 158 591 z"},"=":{"x_min":0,"x_max":576,"ha":576,"o":"m 56 207 l 56 231 q 56 251 84 251 l 485 252 q 512 252 517 248 q 521 244 521 226 l 521 221 q 521 196 507 193 q 493 191 283 191 l 272 190 l 87 190 q 56 190 56 207 z m 440 432 l 498 432 q 522 432 522 415 l 522 396 q 522 373 499 373 l 332 373 l 326 374 l 278 374 l 268 373 l 209 373 l 204 373 l 161 373 l 145 372 l 114 372 l 93 372 l 83 372 q 58 372 58 389 l 58 408 q 58 431 82 431 z"},"a":{"x_min":0,"x_max":503,"ha":503,"o":"m 332 202 l 332 220 q 332 248 317 248 l 310 248 q 243 248 178 207 q 129 176 129 128 l 129 122 q 129 95 149 77 q 169 60 201 60 l 205 60 q 256 60 292 93 q 329 126 329 166 q 331 177 331 182 z m 442 45 q 442 9 392 9 q 374 9 352 24 q 330 39 321 39 q 313 39 269 19 q 225 -1 187 -1 q 125 -1 92 31 q 59 63 59 117 l 59 128 q 59 189 110 230 q 145 258 183 270 q 221 281 255 290 q 290 298 304 305 q 331 319 331 349 q 331 391 306 413 q 281 435 237 435 q 193 435 156 400 q 120 366 94 366 q 69 366 69 399 q 69 432 124 463 q 178 494 245 494 l 257 494 q 293 494 328 480 q 363 466 388 434 q 413 401 413 312 l 409 167 q 409 117 414 101 q 419 85 430 71 q 442 56 442 45 z"},"L":{"x_min":0,"x_max":541,"ha":541,"o":"m 126 691 l 138 691 q 223 691 223 631 q 223 627 214 604 q 205 580 200 558 q 195 536 195 473 l 194 461 q 194 449 194 437 l 193 399 q 193 355 193 312 q 193 128 207 101 q 220 75 299 75 q 348 75 380 84 q 412 94 441 106 q 471 118 487 118 q 510 118 510 86 l 510 75 q 510 32 485 21 q 460 9 361 9 l 349 9 q 336 8 324 8 l 275 7 l 201 7 q 128 7 104 16 q 79 25 79 49 q 79 57 85 77 q 91 98 95 117 q 99 135 99 184 l 100 196 l 100 221 l 101 308 q 101 333 101 442 q 101 552 99 569 q 97 586 85 610 q 74 633 74 642 l 74 652 q 74 675 96 687 q 103 691 126 691 z"},"3":{"x_min":0,"x_max":544,"ha":544,"o":"m 108 544 q 89 544 89 566 q 89 606 147 640 q 205 673 279 673 q 352 673 395 638 q 438 604 438 542 q 438 467 382 410 q 349 376 349 375 q 349 368 383 349 q 471 298 471 203 l 471 187 q 471 152 452 113 q 417 37 331 7 q 287 -8 227 -8 q 166 -8 116 24 q 65 56 65 93 q 65 117 91 117 q 100 117 150 87 q 200 57 252 57 q 303 57 342 93 q 380 129 380 189 q 380 250 336 285 q 307 310 250 321 q 193 332 193 351 q 193 373 240 389 q 286 405 310 431 q 350 472 350 515 q 350 557 323 581 q 297 604 252 604 q 193 604 142 564 q 116 544 108 544 z"},";":{"x_min":0,"x_max":292,"ha":292,"o":"m 90 -109 l 90 -104 q 90 -98 103 -81 q 134 -38 134 -3 q 134 11 131 15 q 127 19 120 24 q 102 41 102 76 q 102 112 116 122 q 130 132 152 132 l 156 131 l 159 131 q 208 131 208 74 l 208 49 q 208 0 178 -53 q 138 -121 105 -121 l 100 -121 q 90 -121 90 -109 z m 99 420 l 99 426 l 99 428 q 99 430 99 432 l 102 449 q 102 481 146 481 l 162 481 q 209 481 209 431 l 209 418 l 208 417 q 208 415 208 412 q 208 409 208 407 q 208 386 196 374 q 185 363 164 363 l 147 363 q 120 363 109 379 q 99 395 99 420 z"},"J":{"x_min":0,"x_max":451,"ha":451,"o":"m 308 691 l 318 691 q 342 691 361 675 q 380 658 380 644 q 380 629 369 591 q 359 553 356 518 q 354 482 354 349 q 354 216 347 163 q 333 50 260 4 q 218 -22 173 -22 l 163 -22 q 109 -22 66 4 q 22 30 22 61 l 22 69 q 22 102 56 102 q 66 102 95 83 q 125 64 153 64 q 182 64 205 88 q 228 111 242 149 q 264 208 264 353 q 264 498 257 533 q 250 568 235 597 q 219 626 219 646 q 219 690 308 691 z"},"V":{"x_min":0,"x_max":633,"ha":633,"o":"m 83 680 q 149 680 167 642 q 168 637 173 598 q 177 559 188 524 q 293 192 328 145 q 344 145 470 516 q 487 569 490 605 q 492 641 495 648 q 507 680 554 680 q 579 680 591 674 q 603 667 603 646 l 603 636 q 603 623 582 588 q 549 536 451 268 q 432 212 426 198 q 420 182 399 127 q 378 72 370 52 q 349 4 326 4 l 313 4 q 288 4 262 64 q 252 88 166 319 q 79 551 58 584 q 38 617 38 631 l 38 641 q 38 663 49 672 q 61 680 83 680 z"},"\"":{"x_min":0,"x_max":378,"ha":378,"o":"m 151 623 l 149 604 q 146 579 142 546 q 137 512 137 508 q 137 459 106 459 l 100 459 q 80 459 80 485 l 80 489 l 79 492 l 78 510 l 78 517 l 74 562 l 74 568 l 72 597 l 72 603 l 71 612 l 71 619 l 69 650 l 69 677 q 69 711 109 711 l 122 711 q 127 710 130 710 q 154 710 154 684 l 154 668 l 154 666 l 153 650 q 153 647 153 645 z m 292 519 q 289 496 289 487 q 289 459 267 459 l 256 459 q 234 459 234 588 l 232 617 l 232 624 l 231 633 q 231 636 231 639 l 230 642 l 230 648 l 230 661 l 230 682 q 230 710 258 710 l 260 711 l 263 711 l 275 712 l 278 711 q 309 711 309 688 l 309 679 l 308 676 l 304 624 l 304 621 l 302 602 q 301 592 300 584 q 299 576 299 573 l 296 554 q 294 541 294 538 z"},"7":{"x_min":0,"x_max":542,"ha":542,"o":"m 275 667 l 334 667 q 425 667 458 657 q 480 650 480 626 q 480 588 238 19 q 225 -12 190 -12 q 155 -12 155 18 q 155 83 265 313 q 375 543 375 561 q 375 578 357 584 q 339 590 284 590 q 194 590 145 578 q 96 566 85 566 q 64 566 64 596 q 64 627 78 642 q 102 666 146 666 l 168 665 q 190 664 203 664 l 214 665 q 261 667 275 667 z"},"S":{"x_min":0,"x_max":551,"ha":551,"o":"m 78 169 q 91 169 124 134 q 157 99 191 81 q 226 62 282 62 q 338 62 372 94 q 407 126 407 177 q 407 229 352 269 q 333 283 241 326 q 150 369 119 399 q 70 449 70 514 q 70 595 126 644 q 182 693 284 693 q 471 693 471 579 q 471 544 444 544 q 432 544 403 573 q 373 603 342 617 q 312 630 266 630 q 220 630 188 602 q 155 573 155 528 q 155 483 208 445 q 230 429 319 389 q 408 349 438 319 q 468 290 483 258 q 497 227 497 188 q 497 105 439 53 q 378 -2 288 -2 l 271 -2 q 236 -2 178 11 q 121 23 103 36 q 84 48 69 74 q 53 101 53 135 q 53 169 78 169 z"},"}":{"x_min":0,"x_max":376,"ha":376,"o":"m 232 556 l 227 435 q 227 388 243 364 q 259 340 288 327 q 316 313 316 292 q 316 279 285 261 q 253 244 239 220 q 226 197 226 122 q 226 114 227 98 l 228 74 q 229 49 229 25 q 229 -57 196 -96 q 175 -122 144 -135 q 113 -149 86 -149 q 58 -149 58 -142 q 58 -117 85 -99 q 130 -68 137 -55 q 153 -24 153 43 l 151 116 q 151 193 169 230 q 183 257 208 275 q 234 292 234 295 q 234 296 221 305 q 208 314 194 326 q 180 338 167 367 q 154 396 154 479 l 156 551 q 156 612 144 635 q 132 659 97 680 q 62 702 62 726 q 62 736 81 736 q 232 736 232 556 z"},"Z":{"x_min":0,"x_max":592,"ha":592,"o":"m 90 588 q 65 588 65 625 q 65 661 111 677 q 140 688 258 688 l 329 688 q 474 688 503 681 q 532 675 532 649 q 532 613 357 367 q 182 122 182 94 q 182 70 283 70 q 396 70 472 96 q 513 110 521 110 q 546 110 546 74 q 546 39 500 21 q 465 6 357 6 l 250 6 l 233 7 q 100 7 80 12 q 51 20 51 48 q 51 69 229 331 q 406 593 406 605 q 406 625 328 625 q 212 625 141 602 q 97 588 90 588 z"},"x":{"x_min":0,"x_max":502,"ha":502,"o":"m 242 188 q 230 188 185 111 q 169 84 166 75 q 163 65 159 49 q 156 32 150 24 q 136 4 88 4 l 76 4 q 49 4 49 18 l 118 119 q 196 233 196 248 q 196 264 150 332 q 105 400 94 412 q 60 449 60 464 q 60 489 117 489 l 129 489 q 164 489 178 472 q 185 464 189 445 q 193 427 204 407 q 248 328 257 328 q 275 328 313 402 q 326 426 331 447 q 335 468 345 478 q 355 488 409 488 q 437 488 437 475 q 437 468 372 380 q 307 292 307 269 q 307 246 375 144 q 406 97 429 71 q 453 44 453 29 q 453 5 400 5 q 348 5 333 22 q 327 30 322 52 q 317 73 303 96 q 249 188 242 188 z"},")":{"x_min":0,"x_max":357,"ha":357,"o":"m 280 314 l 280 281 q 280 158 221 29 q 193 -32 145 -89 q 97 -146 74 -146 l 66 -146 q 52 -146 52 -133 q 52 -129 98 -58 q 143 14 163 75 q 195 174 195 297 q 195 495 111 628 q 56 715 56 722 q 56 733 72 733 q 101 733 139 689 q 193 627 222 565 q 280 438 280 314 z"},"&":{"x_min":0,"x_max":696,"ha":696,"o":"m 290 64 q 297 65 301 65 q 334 65 366 90 q 398 115 398 128 q 398 134 322 234 q 245 334 242 334 l 239 334 q 211 334 171 280 q 147 249 147 208 l 147 200 l 147 195 q 147 136 190 100 q 232 64 282 64 z m 237 558 l 237 542 q 237 499 270 452 q 285 429 290 429 l 292 429 q 315 429 347 471 q 379 512 379 544 l 379 562 q 378 571 378 576 q 378 601 357 619 q 335 638 314 638 l 306 638 q 279 638 258 614 q 237 590 237 558 z m 598 46 l 542 53 q 523 53 489 48 q 454 43 414 43 q 374 43 330 32 q 287 21 250 21 l 235 21 q 171 21 121 68 q 95 92 81 125 q 67 158 67 183 l 67 198 q 67 278 146 349 q 198 395 198 420 q 198 427 187 452 q 175 478 168 500 q 161 521 161 564 q 161 606 196 643 q 230 681 289 681 q 352 681 390 633 q 419 597 419 530 q 419 522 406 461 q 393 400 386 381 q 380 362 380 342 q 380 322 406 302 q 432 282 460 282 q 488 282 510 303 q 552 342 573 342 q 595 342 595 322 q 595 309 582 286 q 550 228 550 173 q 550 139 585 102 q 620 64 620 59 l 620 54 q 620 46 598 46 z"},"_":{"x_min":0,"x_max":549,"ha":549,"o":"m 122 -74 l 158 -74 l 164 -74 l 520 -76 q 544 -76 544 -94 l 544 -110 q 544 -125 534 -127 q 524 -129 434 -129 l 398 -129 l 393 -129 l 339 -129 l 327 -128 l 291 -128 l 273 -128 q 41 -128 23 -126 q 6 -125 6 -104 l 6 -94 q 6 -75 22 -75 z"},"v":{"x_min":0,"x_max":496,"ha":496,"o":"m 75 484 q 131 484 146 452 q 150 442 151 421 q 153 399 156 386 q 159 373 203 246 q 248 119 257 119 q 267 119 311 246 q 355 372 360 388 q 364 404 367 428 q 370 453 375 462 q 385 484 419 484 l 429 484 q 465 484 465 458 l 465 451 q 465 435 444 401 q 423 367 362 211 q 300 56 292 39 q 275 4 247 4 q 220 4 197 50 q 175 96 130 218 q 86 341 45 406 q 31 430 31 450 q 31 470 39 477 q 48 484 75 484 z"},"O":{"x_min":0,"x_max":723,"ha":723,"o":"m 550 329 l 550 356 q 550 410 536 464 q 508 572 442 614 q 403 638 363 638 l 355 638 q 321 638 287 619 q 253 599 229 560 q 205 521 191 466 q 177 411 177 360 l 177 323 q 177 273 192 222 q 221 118 284 79 q 319 57 356 57 l 371 57 q 401 57 435 75 q 469 93 495 130 q 550 210 550 329 z m 83 344 q 83 412 105 481 q 150 621 255 676 q 305 703 368 703 l 388 703 q 439 702 490 675 q 588 622 628 502 q 649 439 649 375 l 649 340 q 649 272 628 207 q 606 142 566 93 q 487 -5 373 -5 l 353 -5 q 299 -5 249 21 q 146 72 106 193 q 83 263 83 321 z"},"(":{"x_min":0,"x_max":360,"ha":360,"o":"m 293 732 q 308 732 308 720 q 308 717 264 647 q 221 577 202 521 q 167 420 167 292 q 167 96 250 -41 q 304 -128 304 -133 q 304 -145 288 -145 q 288 -145 288 -145 q 261 -145 215 -92 q 126 10 93 159 q 79 223 79 296 l 80 307 q 80 372 97 442 q 133 590 232 696 q 266 732 293 732 z"},"C":{"x_min":0,"x_max":650,"ha":650,"o":"m 525 661 q 549 649 569 620 q 588 591 588 559 q 588 528 563 528 q 552 528 520 559 q 487 589 450 608 q 414 627 365 627 q 270 627 211 553 q 149 474 149 341 q 149 221 208 144 q 237 107 277 86 q 317 66 363 66 q 442 66 514 118 q 564 154 581 154 q 598 154 598 139 l 598 128 q 598 115 578 88 q 559 61 521 40 q 444 -2 367 -2 q 221 -2 136 97 q 97 143 75 206 q 54 269 54 335 l 54 352 q 54 419 77 485 q 101 550 146 598 q 231 689 348 689 l 350 690 q 465 690 525 661 z"},"W":{"x_min":0,"x_max":887,"ha":887,"o":"m 272 197 q 286 197 333 374 q 348 427 367 512 q 387 598 391 607 q 413 657 449 657 q 484 657 506 602 q 516 577 527 526 q 537 476 581 344 q 625 211 636 211 q 647 212 686 354 q 726 500 741 562 l 750 602 l 756 619 q 770 654 803 654 q 831 654 831 598 q 831 542 703 132 q 690 92 670 72 q 650 51 640 51 q 607 51 583 100 q 559 149 504 310 q 450 471 444 471 q 438 471 388 313 q 337 154 311 98 q 286 42 259 42 q 244 42 231 51 q 208 68 196 105 l 168 207 q 103 444 81 510 q 59 576 59 610 q 59 667 100 667 q 135 667 151 630 l 157 611 l 176 524 q 189 466 207 401 q 262 197 272 197 z"},"A":{"x_min":0,"x_max":650,"ha":650,"o":"m 405 286 l 405 292 q 405 300 362 439 q 318 579 316 579 q 314 579 305 548 q 295 517 284 485 q 273 453 261 414 q 250 375 235 333 q 221 292 221 288 q 221 276 252 276 l 263 276 l 267 277 l 312 277 q 405 277 405 286 z m 99 21 q 49 21 49 82 q 49 104 70 139 q 100 186 176 395 q 251 604 255 612 q 288 687 320 687 l 332 687 q 361 687 385 636 q 408 585 477 392 q 545 198 573 148 q 602 98 602 90 l 602 81 q 602 52 585 37 q 569 22 526 22 q 482 22 482 66 q 482 93 465 142 q 448 191 438 202 q 416 228 314 228 q 212 228 193 207 q 174 187 162 139 q 149 91 146 65 q 143 40 140 36 q 132 21 110 21 z"},"f":{"x_min":0,"x_max":359,"ha":359,"o":"m 362 674 l 362 666 q 362 637 330 637 q 327 637 306 643 q 284 648 269 648 q 240 648 222 622 q 205 595 205 561 q 205 527 218 508 q 231 488 260 473 q 288 458 288 438 q 288 429 257 416 q 226 402 217 365 q 202 303 202 219 q 202 135 204 121 q 207 107 213 85 q 220 62 220 54 q 220 30 205 17 q 190 3 150 3 l 140 3 q 125 3 108 23 q 92 44 92 61 q 93 77 101 104 q 114 146 114 243 q 114 245 114 246 q 114 345 104 376 q 95 408 79 424 q 63 440 63 452 q 63 463 82 484 q 101 504 107 519 q 115 533 129 583 q 152 667 211 696 q 243 712 276 712 l 287 712 q 322 712 342 698 q 362 684 362 674 z"},"Q":{"x_min":0,"x_max":729,"ha":729,"o":"m 552 346 l 552 374 q 552 421 538 472 q 510 577 438 619 q 408 636 373 636 l 365 636 q 328 636 292 617 q 256 597 227 555 q 173 475 173 353 l 173 343 q 173 281 189 229 q 204 176 227 143 q 250 110 286 89 q 323 67 356 67 q 389 67 400 78 q 412 89 420 111 q 429 133 441 147 q 453 162 481 179 q 509 196 521 215 q 552 265 552 346 z m 528 42 q 528 22 600 -32 q 637 -60 637 -66 q 637 -74 612 -74 l 592 -73 l 581 -74 l 570 -75 l 559 -75 q 476 -75 373 -35 q 271 4 210 59 q 150 114 117 199 q 83 284 83 366 l 83 380 q 83 525 161 613 q 196 653 245 676 q 294 699 349 699 l 374 699 q 431 699 479 673 q 528 646 565 602 q 601 558 621 498 q 642 438 642 374 l 642 347 q 642 270 619 208 q 596 146 562 97 q 528 47 528 42 z"},"w":{"x_min":0,"x_max":721,"ha":721,"o":"m 157 78 q 42 387 42 432 q 42 478 78 478 q 114 478 126 459 q 132 450 143 401 q 153 352 167 305 q 212 149 229 149 q 243 149 282 287 q 292 323 300 373 q 309 422 317 439 q 334 473 366 473 q 398 473 414 442 q 430 412 437 371 q 443 331 456 290 q 498 150 514 150 q 525 150 555 250 q 585 349 589 364 q 592 378 597 406 q 602 434 607 448 q 618 478 656 478 q 680 478 680 437 q 680 424 659 368 q 638 311 600 193 q 562 75 559 68 q 538 23 505 23 q 483 23 461 69 q 438 114 403 220 q 367 326 358 326 q 354 326 322 231 q 289 137 264 80 q 239 23 218 23 l 207 23 q 177 23 157 78 z"},"-":{"x_min":0,"x_max":361,"ha":361,"o":"m 239 309 l 293 309 q 316 309 316 288 l 316 276 q 316 248 304 243 q 292 239 176 239 l 156 239 l 152 238 l 135 238 l 132 238 l 115 238 l 111 237 l 105 237 l 91 237 l 65 237 q 45 237 45 257 l 45 270 q 45 305 68 305 l 72 306 l 75 306 z"},"E":{"x_min":0,"x_max":578,"ha":578,"o":"m 365 685 l 401 685 q 462 685 481 670 q 500 655 500 626 q 500 598 473 598 q 470 598 441 605 q 375 622 306 622 q 238 622 223 602 q 200 571 200 464 q 200 432 223 420 q 246 408 276 408 q 307 408 343 417 q 380 425 392 425 q 403 425 420 411 q 437 396 437 367 q 437 337 430 324 q 418 302 383 302 l 369 305 l 355 309 l 341 312 q 315 317 272 317 q 229 317 211 300 q 193 282 193 240 q 193 134 218 95 q 234 70 299 70 q 390 70 438 86 q 486 103 499 103 q 520 103 520 67 q 520 32 480 18 q 449 7 340 7 l 321 8 q 195 8 125 21 q 79 29 79 60 q 79 68 91 99 q 102 129 107 189 q 112 249 112 362 q 112 476 109 521 q 105 565 94 599 q 82 633 82 640 q 82 661 118 668 q 206 685 365 685 z"},"s":{"x_min":0,"x_max":445,"ha":445,"o":"m 233 496 q 375 496 375 412 q 375 384 356 384 q 348 384 305 412 q 263 439 224 439 q 141 439 141 371 q 141 343 179 319 q 200 306 261 281 q 322 257 347 237 q 395 198 395 146 l 395 134 q 395 79 349 39 q 303 -1 223 -1 q 143 -1 98 21 q 77 31 63 52 q 49 73 49 93 q 49 126 73 126 q 83 126 109 103 q 135 80 161 67 q 188 55 226 55 q 264 55 288 75 q 312 96 312 127 q 312 158 281 181 q 262 196 192 226 q 122 256 98 279 q 62 315 62 369 q 62 422 106 459 q 150 496 220 496 z"},">":{"x_min":0,"x_max":564,"ha":564,"o":"m 112 132 q 122 139 268 218 q 414 297 414 300 q 414 303 280 372 q 146 441 102 471 q 71 492 71 527 q 71 543 80 543 l 87 543 q 123 543 463 349 q 502 327 502 305 q 502 283 479 268 q 433 238 306 171 q 179 104 135 79 q 92 53 85 53 l 79 53 q 71 53 71 71 l 71 79 q 71 106 112 132 z"},"l":{"x_min":0,"x_max":288,"ha":288,"o":"m 170 4 l 145 4 q 116 4 100 19 q 84 33 84 55 q 84 61 88 77 q 92 93 93 105 q 94 118 94 180 l 93 215 l 93 233 l 94 279 l 94 315 l 95 324 l 95 342 q 95 576 93 598 q 91 620 81 649 q 70 679 70 682 q 70 698 83 705 q 95 712 137 712 l 145 712 q 174 712 181 682 q 182 675 182 452 l 182 425 q 182 411 182 397 l 182 370 l 182 352 l 183 326 l 183 308 l 185 247 q 186 229 186 198 q 186 139 213 86 q 226 61 226 44 q 226 27 206 11 q 197 4 170 4 z"},"8":{"x_min":0,"x_max":548,"ha":548,"o":"m 406 162 l 406 179 q 406 229 367 265 q 303 323 249 323 l 241 323 q 205 323 174 283 q 143 242 143 203 l 143 186 q 143 131 185 96 q 227 61 277 61 l 291 61 q 338 61 372 92 q 406 123 406 162 z m 389 513 l 389 531 q 389 573 355 601 q 320 629 277 629 l 269 629 q 224 629 194 602 q 164 575 164 534 l 165 530 q 165 488 200 456 q 250 411 296 411 q 329 411 359 444 q 389 478 389 513 z m 435 452 q 423 432 396 404 q 368 376 368 374 q 368 372 385 360 q 478 293 478 197 l 478 187 q 478 108 416 49 q 358 -5 267 -5 l 256 -5 q 180 -5 128 42 q 70 93 70 167 l 70 189 q 70 232 92 268 q 113 304 146 333 q 178 362 178 362 q 178 367 151 391 q 125 416 109 445 q 93 475 93 518 q 93 601 150 649 q 206 698 283 698 q 360 698 410 655 q 459 612 459 542 q 459 494 435 452 z"},"\\":{"x_min":0,"x_max":419,"ha":419,"o":"m 363 -63 q 337 -63 309 2 q 203 242 59 640 q 31 718 31 721 q 31 731 60 731 q 86 731 111 671 q 182 505 223 391 q 264 276 328 117 q 392 -43 392 -53 q 392 -63 363 -63 z"},"e":{"x_min":0,"x_max":508,"ha":508,"o":"m 376 326 l 376 334 q 375 343 375 346 q 375 383 328 416 q 304 432 265 432 l 258 432 q 215 432 184 405 q 140 366 140 327 l 140 317 q 140 306 171 306 l 193 306 l 196 307 l 250 308 q 376 308 376 326 z m 454 109 l 454 102 q 454 71 394 38 q 335 5 280 5 l 269 5 q 183 5 126 62 q 97 91 78 136 q 59 181 59 229 l 59 252 q 59 294 76 341 q 111 436 194 475 q 237 495 285 495 l 296 495 q 357 495 406 450 q 454 405 454 340 l 454 330 q 454 292 424 279 q 406 271 297 261 q 189 251 182 250 q 142 238 142 203 q 142 184 155 152 q 189 71 284 71 q 320 71 376 98 q 433 125 435 125 q 454 125 454 109 z"},"b":{"x_min":0,"x_max":547,"ha":547,"o":"m 181 260 l 181 243 q 181 149 201 109 q 212 87 236 73 q 259 59 280 59 l 285 59 l 289 60 q 335 60 368 111 q 401 162 401 237 l 401 267 q 401 339 368 388 q 334 437 294 437 l 281 437 q 237 437 205 389 q 183 357 183 292 l 182 282 z m 169 623 l 167 579 q 167 557 167 519 q 167 481 173 471 q 178 461 188 461 q 198 461 233 470 q 267 479 302 479 q 337 479 373 459 q 443 419 472 333 q 486 288 486 240 l 486 228 q 486 181 471 139 q 439 51 369 19 q 338 5 305 5 q 273 5 226 22 q 178 39 175 39 q 171 39 159 33 q 147 27 143 26 q 140 26 136 26 q 123 26 112 37 q 99 50 99 114 l 100 159 l 100 215 l 99 250 l 98 295 l 97 318 q 96 341 96 353 l 94 397 l 92 453 l 90 509 q 90 596 79 626 q 68 657 68 674 q 68 691 80 701 q 91 711 125 711 l 134 711 q 152 711 161 693 q 169 674 169 623 z"},"%":{"x_min":0,"x_max":777,"ha":777,"o":"m 658 156 l 658 170 l 657 182 l 656 196 q 656 229 636 258 q 616 287 593 287 l 587 287 q 560 287 541 252 q 522 217 522 171 l 522 149 q 522 105 541 71 q 559 37 585 37 l 593 37 q 616 37 636 66 q 656 95 656 137 l 657 141 l 657 145 z m 135 514 l 135 492 q 135 450 152 416 q 169 381 201 381 l 204 382 q 231 382 250 418 q 270 454 270 501 l 270 520 q 270 560 253 597 q 236 634 206 634 l 203 634 l 199 633 q 177 633 157 604 q 136 575 136 533 l 136 529 l 135 525 z m 715 185 l 715 168 q 715 91 674 44 q 633 -3 586 -3 l 567 -3 q 519 -3 485 43 q 451 89 451 146 l 450 157 l 450 163 l 451 168 l 451 174 q 451 250 491 298 q 532 345 579 345 l 598 345 q 648 345 682 296 q 715 248 715 185 z m 238 34 q 211 -6 186 -6 q 161 -6 161 3 q 161 7 183 45 q 360 359 540 633 q 570 680 591 680 l 599 680 q 622 680 622 671 q 622 666 599 628 q 291 115 238 34 z m 333 533 l 333 510 q 333 439 294 388 q 256 337 202 337 l 187 337 q 135 337 99 389 q 63 440 63 505 l 63 521 q 63 594 102 641 q 140 688 191 688 l 202 688 q 260 688 296 642 q 333 596 333 533 z"},"m":{"x_min":0,"x_max":803,"ha":803,"o":"m 75 143 q 86 185 86 311 q 86 438 91 450 q 97 463 110 463 q 123 463 135 457 l 156 445 q 176 437 212 437 l 225 439 l 240 445 l 256 451 q 284 459 315 459 q 369 459 413 424 q 431 410 439 410 q 446 410 460 419 l 475 430 q 493 444 506 452 q 550 478 591 478 q 670 478 702 402 q 722 355 724 265 l 724 244 q 726 173 732 145 l 741 111 l 743 93 q 743 59 727 39 q 711 19 670 19 q 647 19 647 40 q 647 46 650 67 q 652 88 652 111 q 652 307 635 354 q 615 410 552 410 q 530 410 509 393 q 488 376 478 350 q 458 295 458 154 q 458 143 463 117 q 468 91 468 87 q 468 48 441 35 q 430 29 397 29 q 364 29 352 40 q 340 51 340 83 l 343 99 q 350 131 350 190 q 350 326 333 370 q 317 414 271 414 q 249 414 218 392 q 188 370 174 334 q 161 298 161 132 q 161 89 163 70 q 166 50 166 43 q 166 21 132 21 q 62 21 62 92 l 65 109 z"},"#":{"x_min":0,"x_max":596,"ha":596,"o":"m 279 427 q 273 426 271 426 q 250 426 246 413 q 215 330 215 272 l 215 270 q 215 263 230 263 l 232 263 l 235 263 l 272 266 q 339 266 346 277 q 353 289 359 329 l 374 397 l 374 400 l 375 403 q 379 417 379 420 l 379 422 q 379 430 358 430 l 322 430 l 319 430 l 285 427 z m 416 293 q 416 275 465 270 q 514 265 514 241 q 514 218 475 212 q 415 203 403 190 q 392 177 380 112 q 368 47 359 31 q 350 15 326 15 q 308 15 308 42 q 308 45 319 110 q 331 174 331 189 q 331 205 274 205 q 218 205 208 190 q 206 187 190 115 q 175 43 166 28 q 157 13 136 13 q 116 13 116 27 q 116 35 126 92 q 137 149 137 174 q 137 199 99 207 q 61 214 61 240 q 61 260 104 266 q 146 272 159 286 q 182 310 182 394 q 182 418 144 423 q 86 430 86 447 q 86 470 105 478 q 113 480 152 485 q 191 490 201 505 q 210 521 221 583 q 233 646 237 657 q 247 679 271 679 q 292 679 292 655 q 292 648 281 586 q 269 523 269 506 q 269 489 353 489 q 382 489 389 499 q 396 509 407 568 q 417 626 428 650 q 438 674 455 674 q 481 674 481 658 q 481 648 472 601 q 463 554 463 529 q 463 504 478 495 q 480 494 510 485 q 541 477 541 460 q 541 439 520 432 l 504 429 l 488 428 l 472 427 q 444 422 436 408 q 416 372 416 293 z"},",":{"x_min":0,"x_max":276,"ha":276,"o":"m 88 67 q 88 119 137 119 l 147 119 q 173 119 185 105 q 196 91 196 59 l 196 38 q 194 26 194 20 q 194 -30 155 -83 q 115 -135 90 -135 l 88 -135 q 75 -135 75 -120 l 76 -117 q 76 -109 87 -97 q 123 -57 123 -13 q 123 -2 113 6 q 103 14 100 19 q 88 36 88 67 z"},"n":{"x_min":0,"x_max":557,"ha":557,"o":"m 76 457 q 76 475 109 475 q 143 475 162 453 q 182 432 204 432 q 209 432 232 445 q 255 457 280 467 q 304 477 343 477 l 355 477 q 393 477 422 455 q 451 433 461 403 q 472 373 475 286 l 479 179 q 480 147 491 113 q 502 79 502 79 q 502 49 489 37 q 475 25 433 25 q 392 25 392 54 q 392 55 396 77 q 399 100 399 134 q 399 308 375 364 q 364 389 343 403 q 321 418 290 418 q 259 418 232 401 q 204 385 189 359 q 166 317 166 176 q 166 125 172 99 q 178 74 178 59 q 178 45 163 31 q 147 18 121 18 l 108 18 q 84 18 75 23 q 59 31 59 50 q 59 68 69 99 q 80 130 81 177 q 83 225 83 293 l 83 375 l 83 387 q 83 399 83 411 q 83 423 81 433 z"},"h":{"x_min":0,"x_max":553,"ha":553,"o":"m 96 292 l 90 560 q 90 614 84 642 l 81 652 l 75 671 q 75 695 109 695 q 144 695 158 673 q 173 650 173 584 l 174 555 q 174 541 174 512 q 174 458 197 458 q 198 458 242 474 q 286 491 323 491 q 361 491 392 470 q 423 449 442 411 q 461 373 461 225 q 461 143 471 108 q 481 74 481 56 q 481 39 469 25 q 457 12 428 12 q 399 12 386 22 q 373 32 373 59 l 375 71 l 378 94 q 380 106 380 152 l 381 233 l 382 266 q 383 282 383 299 q 383 362 365 390 q 346 418 311 418 q 239 418 201 348 q 180 310 180 192 q 180 127 187 97 q 193 68 193 50 q 193 32 177 21 q 161 9 132 9 q 76 9 76 52 q 76 53 84 96 q 93 139 94 162 q 96 186 96 292 z"},"z":{"x_min":0,"x_max":477,"ha":477,"o":"m 141 492 l 219 492 l 232 491 l 245 491 q 377 491 401 488 q 424 484 424 464 q 424 433 295 265 q 166 97 166 80 q 166 65 230 65 q 294 65 319 70 q 344 75 372 82 l 409 91 q 435 91 435 65 q 435 40 427 30 q 418 20 393 13 q 368 6 209 6 l 104 6 q 69 6 57 12 q 45 18 45 35 q 45 61 174 235 q 303 408 303 421 q 303 433 246 433 q 168 433 125 421 q 82 410 80 410 q 56 410 56 439 q 56 469 76 480 q 97 492 141 492 z"},"B":{"x_min":0,"x_max":612,"ha":612,"o":"m 278 331 l 244 331 q 204 331 198 323 q 191 315 191 277 l 191 273 l 191 209 q 191 108 197 98 q 207 79 254 79 l 264 78 l 284 78 l 300 78 q 414 78 448 139 q 462 165 462 190 l 462 200 l 462 205 q 462 260 418 295 q 374 330 309 330 l 299 331 z m 263 623 l 246 622 q 208 622 200 605 q 191 588 191 500 l 191 477 l 191 465 l 191 434 q 191 415 198 409 q 205 404 229 404 l 251 404 l 255 404 l 290 406 q 294 406 299 406 q 353 406 393 437 q 433 468 433 515 l 433 533 q 433 577 395 600 q 357 624 294 624 l 281 624 l 276 623 z m 260 695 l 283 695 q 399 695 450 657 q 508 612 508 532 q 508 480 490 452 q 472 423 445 401 q 418 379 418 375 q 418 374 435 365 q 452 356 474 343 q 496 329 513 304 q 544 260 544 206 l 544 194 q 544 147 521 108 q 497 68 459 45 q 403 10 255 10 l 244 10 l 233 10 q 137 10 114 15 q 90 19 90 37 q 90 41 100 63 q 110 86 113 113 q 116 140 116 223 l 115 271 l 114 294 q 113 317 113 330 l 111 375 q 111 387 111 399 l 113 493 l 113 504 l 114 540 q 114 606 102 636 q 89 665 89 673 q 89 694 238 694 z"},"K":{"x_min":0,"x_max":646,"ha":646,"o":"m 109 206 l 105 383 l 109 519 q 109 563 103 590 l 94 619 q 88 636 88 649 q 88 661 101 674 q 113 687 142 687 l 159 687 q 185 687 204 675 q 224 663 224 633 q 224 630 216 603 q 208 577 204 546 q 199 516 199 446 q 199 402 220 402 q 247 402 352 525 q 398 580 417 618 q 435 656 440 662 q 458 684 501 684 q 543 684 543 662 q 543 656 438 538 q 332 420 332 391 q 332 362 459 191 q 512 120 550 77 q 588 35 588 25 q 588 10 548 10 q 480 10 457 37 q 445 49 432 79 q 418 109 401 139 q 384 169 332 234 q 280 299 251 299 q 232 299 219 269 q 205 239 205 198 q 205 156 209 137 q 212 119 218 97 q 223 74 223 72 q 223 46 203 28 q 184 9 151 9 q 118 9 104 19 q 89 29 89 53 q 89 55 96 75 q 103 96 106 112 q 109 129 109 206 z"},"R":{"x_min":0,"x_max":633,"ha":633,"o":"m 197 407 l 197 391 q 197 368 226 368 l 264 368 q 345 368 391 406 q 437 445 437 506 l 437 521 q 437 564 405 594 q 373 623 315 623 l 306 623 l 302 622 l 284 622 l 262 620 q 234 620 219 609 q 205 599 205 563 l 205 559 l 204 554 l 203 536 q 203 532 203 527 z m 119 274 l 123 470 q 123 586 116 628 q 108 669 108 670 q 108 692 200 692 l 229 693 l 271 693 q 344 693 385 685 q 476 666 505 587 q 517 556 517 509 q 517 462 489 416 q 474 389 441 360 q 408 332 408 319 q 408 307 452 224 q 496 141 510 120 q 525 99 545 76 q 566 53 566 41 l 566 33 q 566 16 527 16 q 488 16 467 36 q 446 56 410 135 q 374 215 341 253 q 308 292 270 292 q 245 292 222 264 q 211 250 211 209 q 211 154 222 116 q 234 79 234 70 q 234 43 218 29 q 201 14 164 14 q 96 14 96 73 q 96 82 106 109 q 116 135 118 151 q 119 167 119 274 z"},"T":{"x_min":0,"x_max":586,"ha":586,"o":"m 342 467 l 341 384 q 341 336 341 246 q 341 155 343 135 q 345 116 355 89 q 366 62 366 57 q 366 4 303 4 l 291 4 q 256 4 245 10 q 219 24 219 60 q 219 63 231 90 q 242 117 245 151 q 249 184 249 363 q 249 542 239 575 q 229 608 179 608 q 154 608 115 594 q 76 580 71 580 q 51 580 51 615 l 51 627 q 51 662 80 677 q 99 688 183 688 l 208 688 l 246 689 l 259 689 l 297 690 l 322 690 l 335 689 l 373 689 q 485 689 505 683 q 539 672 539 629 l 539 617 q 539 584 514 584 q 508 584 493 590 q 478 597 457 604 q 437 611 407 611 q 363 611 353 583 q 342 555 342 467 z"},"P":{"x_min":0,"x_max":578,"ha":578,"o":"m 193 398 l 193 389 q 193 347 222 347 l 229 346 l 242 345 l 250 345 l 254 346 l 268 346 q 272 347 277 347 q 342 347 386 388 q 431 429 431 490 l 431 515 q 431 559 398 590 q 365 620 317 620 q 309 621 304 621 l 267 621 q 254 620 249 620 q 210 620 203 597 q 195 574 195 467 l 195 453 l 195 444 l 194 421 l 194 412 z m 106 284 l 107 330 l 109 363 q 110 385 110 396 l 110 408 q 111 419 111 429 l 112 451 l 113 495 l 113 505 l 114 527 q 114 538 114 564 q 114 606 108 628 q 102 651 102 655 q 102 671 136 677 q 206 688 295 688 l 339 688 q 428 688 478 641 q 528 595 528 519 q 528 434 469 373 q 441 344 407 329 q 373 314 321 305 q 230 288 207 240 q 197 221 197 191 q 197 162 208 128 q 219 94 219 79 q 219 52 188 23 q 173 8 148 8 l 127 8 q 101 8 90 17 q 78 26 78 42 q 78 58 88 87 q 99 117 102 146 q 106 176 106 250 z"},"|":{"x_min":0,"x_max":340,"ha":340,"o":"m 182 -163 l 164 -163 q 142 -163 140 -140 q 137 -98 137 293 l 137 476 q 137 670 139 703 q 142 735 160 735 l 187 735 q 205 735 205 569 l 205 271 q 205 -98 202 -130 q 199 -163 182 -163 z"},"t":{"x_min":0,"x_max":361,"ha":361,"o":"m 239 6 l 221 6 q 191 6 168 22 q 145 38 132 62 q 110 109 110 239 q 110 370 101 394 q 91 419 68 428 q 45 437 45 454 q 45 472 71 483 q 97 494 102 503 q 108 513 115 545 q 122 577 128 592 q 140 620 160 620 q 179 620 187 608 q 194 597 200 564 q 206 531 221 514 q 237 497 270 489 q 302 482 302 460 q 302 438 261 428 q 219 418 211 399 q 197 363 197 249 q 197 134 216 102 q 235 70 295 70 q 313 70 313 50 q 313 31 295 18 q 276 6 239 6 z"},"M":{"x_min":0,"x_max":826,"ha":826,"o":"m 144 32 q 130 26 110 26 q 90 26 77 38 q 64 49 64 62 q 64 75 76 105 q 88 136 91 168 q 103 271 103 516 q 103 565 100 594 l 96 617 q 91 643 91 649 q 91 668 134 668 q 157 668 185 650 q 212 632 235 597 q 258 562 332 387 q 407 212 415 212 q 421 212 499 393 q 577 574 596 604 q 615 635 643 653 q 671 670 704 670 q 737 670 737 647 q 737 646 732 619 q 727 593 726 572 q 726 550 726 393 q 726 173 743 114 l 750 94 q 760 65 760 53 q 760 41 745 31 q 731 21 704 21 q 677 21 655 38 q 634 56 634 82 q 634 92 638 119 q 642 145 643 159 q 644 173 644 266 q 644 506 625 506 q 613 506 543 336 l 451 114 l 439 91 q 422 62 408 62 q 380 62 361 101 q 353 117 273 314 q 194 510 180 510 l 176 501 q 162 454 162 201 q 162 159 166 120 q 170 82 170 71 q 170 45 144 32 z"},"g":{"x_min":0,"x_max":556,"ha":556,"o":"m 383 229 l 383 246 l 382 251 q 382 257 382 263 q 382 348 352 405 q 327 452 285 452 l 276 452 q 238 452 210 416 q 169 364 169 312 l 169 291 l 170 285 q 170 203 202 149 q 234 95 274 95 l 278 95 q 321 95 352 135 q 383 175 383 229 z m 459 474 q 464 464 464 442 q 464 419 457 364 q 449 309 449 262 q 449 215 457 130 q 465 44 465 36 l 465 23 q 465 -70 405 -125 q 349 -177 257 -177 q 200 -177 149 -152 q 99 -127 99 -97 q 99 -66 127 -66 q 133 -66 182 -86 q 231 -105 271 -105 q 333 -105 365 -64 q 397 -23 397 45 q 397 60 388 60 q 388 61 374 54 q 331 33 287 32 q 145 32 103 182 q 85 242 85 295 q 85 386 133 446 q 188 516 273 516 q 315 516 335 506 q 354 497 371 485 q 387 473 390 473 q 393 473 402 482 q 412 491 418 491 q 449 491 459 474 z"},"j":{"x_min":0,"x_max":274,"ha":274,"o":"m -21 -163 q -21 -124 23 -124 q 68 -124 88 -92 q 108 -59 108 22 l 109 41 l 109 60 q 109 78 109 97 l 110 115 q 110 143 110 220 q 110 358 94 404 q 78 450 78 453 q 78 471 88 477 q 105 487 144 487 l 151 487 q 176 487 188 456 q 195 436 195 382 l 195 70 q 195 -64 161 -124 q 145 -153 112 -173 q 79 -193 39 -193 l 31 -193 q -21 -193 -21 -163 z m 139 591 l 126 593 q 104 593 104 617 q 103 622 103 624 l 102 635 l 102 648 l 104 661 q 104 676 115 687 q 126 698 142 698 l 152 700 l 164 700 q 172 698 176 698 q 200 698 200 666 l 201 657 l 201 642 l 199 625 q 199 614 187 602 q 176 591 149 591 z"},"i":{"x_min":0,"x_max":271,"ha":271,"o":"m 156 8 l 113 8 q 91 8 80 20 q 68 33 68 44 q 68 55 80 83 q 91 110 93 134 q 95 157 95 258 q 95 359 92 383 q 89 406 78 431 q 66 456 66 458 q 66 478 82 484 q 98 491 144 491 l 150 491 q 173 491 178 462 q 180 451 180 311 q 180 171 183 145 q 187 119 198 91 q 210 63 210 57 q 210 37 194 22 q 178 8 156 8 z m 126 596 l 115 598 q 89 598 89 627 q 88 632 88 634 l 87 645 l 87 649 q 87 673 97 687 q 108 700 124 700 l 126 701 l 140 702 l 142 701 l 157 700 q 158 699 160 699 q 184 699 184 674 q 186 667 186 666 l 188 658 q 188 651 188 644 l 186 629 q 186 599 157 599 l 153 598 l 150 597 l 140 596 z"},"y":{"x_min":0,"x_max":502,"ha":502,"o":"m 51 446 q 51 483 104 483 q 146 483 162 452 q 165 445 167 426 q 170 407 173 392 q 176 376 216 262 q 256 148 262 148 q 275 148 326 299 q 355 388 358 422 q 361 457 364 463 q 374 489 401 489 q 428 489 441 482 q 454 474 454 458 q 454 442 433 396 l 422 374 q 412 354 406 339 q 259 -63 243 -96 q 226 -129 194 -157 q 163 -185 116 -185 q 69 -185 69 -161 q 69 -140 84 -128 q 92 -123 109 -118 q 126 -113 130 -112 q 155 -103 175 -77 q 212 -29 212 34 q 212 70 139 250 q 106 329 79 383 q 51 436 51 446 z"},"@":{"x_min":0,"x_max":807,"ha":807,"o":"m 423 -54 l 396 -54 q 344 -54 283 -32 q 223 -11 173 36 q 70 134 70 286 q 70 458 180 570 q 229 620 295 647 q 362 674 436 674 q 577 674 664 583 q 741 502 741 378 q 741 272 681 197 q 629 131 557 131 q 533 131 516 144 l 502 159 q 491 172 480 172 l 464 165 l 443 152 q 406 133 373 133 q 323 133 294 173 q 265 212 265 279 q 265 345 309 400 q 354 456 406 456 l 427 454 l 446 447 l 454 445 l 441 445 q 393 445 349 381 q 304 317 304 259 l 304 238 q 304 206 322 182 q 339 158 362 158 l 371 158 q 409 158 444 213 q 498 296 498 361 l 499 369 l 499 380 l 499 392 q 499 417 485 431 q 477 439 467 443 q 482 444 500 450 q 521 458 529 458 q 550 458 550 419 l 540 349 q 531 287 531 259 q 531 199 569 199 q 609 199 645 250 q 685 307 685 374 q 685 439 666 481 q 623 575 527 610 q 484 625 418 625 q 352 625 296 593 q 131 498 131 279 q 131 228 156 165 q 182 103 228 62 q 313 -13 434 -13 q 496 -13 569 18 q 622 39 637 39 q 643 39 643 36 l 637 25 q 616 -1 550 -27 q 483 -54 423 -54 z"},".":{"x_min":0,"x_max":274,"ha":274,"o":"m 82 59 l 83 73 q 83 90 95 102 q 107 114 124 114 l 133 115 l 147 115 q 189 115 189 78 l 190 74 l 191 56 l 191 50 l 190 44 l 188 32 q 188 16 176 6 q 164 -4 143 -4 l 129 -4 q 83 -4 83 33 l 82 45 z"},"p":{"x_min":0,"x_max":551,"ha":551,"o":"m 403 248 l 403 284 q 403 344 375 392 q 346 440 301 440 l 288 440 q 242 440 208 391 q 185 358 185 293 q 184 282 184 276 l 183 254 l 183 215 q 185 194 185 183 q 185 133 211 100 q 237 67 279 67 l 292 67 q 336 67 370 120 q 403 174 403 248 z m 100 181 l 102 240 l 103 299 q 103 378 101 396 q 100 413 94 435 q 89 457 89 464 q 89 486 132 486 q 140 486 168 468 q 178 462 200 462 q 208 462 244 481 q 281 500 315 500 l 326 500 q 361 499 395 481 q 493 428 493 284 q 493 170 432 97 q 370 22 271 22 l 251 23 l 232 23 q 170 23 170 -29 q 170 -53 182 -82 q 194 -111 194 -129 q 194 -147 173 -163 q 152 -178 128 -178 l 118 -178 q 66 -178 66 -141 q 66 -129 74 -108 q 82 -87 86 -66 q 91 -45 95 61 q 100 167 100 181 z"},"X":{"x_min":0,"x_max":632,"ha":632,"o":"m 134 685 q 199 685 217 660 q 220 656 226 625 q 232 595 253 556 q 316 440 323 440 q 344 440 414 578 q 426 601 429 611 q 432 622 435 641 q 438 661 443 667 q 458 688 494 688 q 531 688 542 683 q 554 679 554 660 q 554 641 524 607 q 494 573 467 531 q 379 391 379 367 q 379 343 471 192 q 509 130 541 91 q 572 53 572 32 q 572 6 520 6 l 502 6 q 454 6 436 29 q 431 35 424 67 q 417 100 390 146 q 314 275 308 275 q 290 275 216 139 q 197 104 187 66 q 177 27 174 24 q 156 7 101 7 q 62 7 62 36 q 62 50 103 96 q 125 120 191 226 q 257 331 257 346 q 257 361 201 458 q 146 555 112 601 q 78 647 78 653 q 78 672 88 679 q 99 685 134 685 z"},"*":{"x_min":0,"x_max":455,"ha":455,"o":"m 206 585 q 201 628 201 666 q 201 695 232 695 q 264 695 264 665 l 256 583 q 256 571 272 571 q 273 571 304 590 q 336 608 346 608 q 375 608 375 588 q 375 568 352 547 q 346 542 326 532 q 307 523 307 517 q 307 507 323 478 q 339 449 339 434 q 339 418 325 418 l 277 426 q 268 426 260 408 q 253 390 241 390 l 221 394 l 208 393 q 198 393 192 410 q 187 426 175 426 l 161 423 l 146 421 q 124 417 121 417 q 110 417 110 437 q 110 458 122 471 l 135 483 q 152 499 152 519 q 152 521 133 530 q 113 539 106 544 q 83 563 83 588 q 83 613 112 613 q 128 613 163 590 q 197 568 199 568 q 206 568 206 585 z"},"Y":{"x_min":0,"x_max":612,"ha":612,"o":"m 191 654 q 197 645 199 619 q 201 593 214 565 q 298 378 315 378 q 330 378 417 554 q 434 587 443 625 q 452 664 455 667 q 472 686 517 686 q 562 686 562 663 q 562 643 536 608 q 509 574 454 476 q 399 378 376 326 q 354 274 354 169 q 354 132 358 116 q 363 101 370 82 q 377 64 377 57 q 377 1 312 1 l 286 1 q 264 1 253 9 q 232 25 232 54 q 232 62 242 85 q 253 109 257 132 q 261 156 261 219 q 261 283 229 349 q 196 415 154 490 q 111 565 82 605 q 52 645 52 651 q 52 672 64 679 q 77 685 124 685 q 171 685 191 654 z"},"c":{"x_min":0,"x_max":488,"ha":488,"o":"m 435 401 q 435 369 404 369 q 391 369 353 401 q 315 433 276 433 q 276 433 275 433 q 203 433 167 379 q 132 325 132 245 q 132 166 173 116 q 195 89 220 78 q 246 66 282 66 q 318 66 367 94 q 417 122 425 122 q 443 122 443 104 l 443 96 q 443 65 384 32 q 326 -1 261 -1 l 249 -1 q 207 -1 168 19 q 90 59 61 144 q 46 187 46 235 l 46 248 q 46 292 62 337 q 94 432 173 471 q 217 493 257 493 l 279 493 q 335 493 385 468 q 435 443 435 401 z"},"!":{"x_min":0,"x_max":303,"ha":303,"o":"m 208 51 l 206 36 q 206 0 170 0 l 163 -1 l 159 -1 l 154 -2 l 152 -2 l 143 -1 l 132 1 q 103 1 103 34 q 101 41 101 43 l 100 55 l 100 61 l 100 63 l 102 77 q 102 79 102 80 q 102 112 136 112 q 140 113 142 113 l 151 114 l 157 114 l 173 112 q 205 112 205 77 l 207 69 l 208 57 z m 156 698 l 171 698 q 190 698 196 686 q 203 675 203 642 l 203 636 l 202 631 l 200 586 l 199 558 l 198 535 q 197 523 197 517 l 196 505 q 194 482 194 470 l 193 458 q 192 452 192 446 l 191 435 q 191 429 191 423 l 190 411 q 189 399 189 394 l 188 382 q 188 376 188 370 l 187 358 q 185 335 184 323 q 184 312 184 306 l 183 294 l 181 260 q 181 219 177 205 q 172 190 156 190 l 151 190 q 137 190 131 203 q 126 216 126 289 l 125 329 l 122 370 l 119 428 l 117 475 l 114 534 l 111 636 l 111 647 q 111 675 120 687 q 128 698 156 698 z"},"/":{"x_min":0,"x_max":413,"ha":413,"o":"m 386 720 q 386 712 364 655 q 150 96 99 -25 q 81 -68 52 -68 q 24 -68 24 -56 q 24 -52 53 27 q 241 532 307 681 q 329 731 354 731 l 363 731 q 386 731 386 720 z"},"[":{"x_min":0,"x_max":347,"ha":347,"o":"m 245 -142 l 188 -141 q 124 -141 112 -120 q 101 -100 101 48 l 101 157 l 101 169 l 101 193 l 102 205 l 102 301 q 102 675 110 698 q 118 721 141 728 q 165 734 261 734 q 300 734 300 718 q 300 692 248 681 q 196 670 187 642 q 176 606 176 291 q 176 -25 183 -51 q 191 -76 224 -84 q 282 -98 283 -99 q 296 -106 296 -128 q 296 -143 267 -143 l 255 -143 z"},"6":{"x_min":0,"x_max":550,"ha":550,"o":"m 395 195 l 395 221 q 395 289 361 332 q 328 375 283 375 l 274 375 q 228 375 196 337 q 164 300 164 245 l 164 219 q 164 155 197 106 q 229 58 274 58 l 291 58 q 333 58 364 98 q 395 138 395 195 z m 440 631 q 440 612 401 612 l 385 613 l 368 613 q 291 613 235 561 q 207 534 189 494 q 171 454 171 423 q 171 393 195 393 l 240 406 q 267 414 300 414 q 301 414 302 414 q 334 414 369 398 q 440 368 470 293 q 486 251 486 210 l 486 198 q 486 163 473 126 q 445 50 368 19 q 335 6 298 6 l 286 6 q 191 6 123 89 q 94 125 77 180 q 60 234 60 296 l 60 322 q 60 396 86 462 q 139 598 239 644 q 295 669 342 669 q 390 669 415 658 q 440 647 440 631 z"},"r":{"x_min":0,"x_max":386,"ha":386,"o":"m 105 5 q 85 5 74 18 q 63 30 63 42 q 63 53 74 84 q 85 115 86 141 q 86 167 86 176 l 87 185 l 87 258 q 87 371 78 407 q 69 442 69 445 q 69 474 121 474 q 154 474 169 459 q 174 454 180 440 q 186 426 194 426 q 195 426 232 453 q 270 480 299 480 l 307 480 q 330 480 344 468 q 357 456 357 436 q 357 396 326 396 l 300 400 q 284 403 266 403 q 249 403 226 385 q 204 367 189 330 q 175 293 175 221 q 175 150 179 131 q 183 112 190 88 q 198 64 198 62 q 198 29 170 13 q 157 5 122 5 z"},"2":{"x_min":0,"x_max":545,"ha":545,"o":"m 94 503 q 74 503 74 536 q 74 550 89 577 q 104 604 141 630 q 199 672 267 672 q 355 672 407 625 q 460 575 460 489 q 460 427 416 366 q 388 328 312 255 q 236 182 211 150 q 186 118 186 97 q 186 81 250 81 q 359 81 399 88 l 424 93 q 442 97 447 97 q 478 97 478 64 q 478 32 451 21 q 425 9 371 9 l 341 8 l 294 8 l 279 8 l 263 8 l 232 9 q 116 9 97 13 q 70 18 70 38 q 70 73 124 144 q 151 180 231 264 q 311 347 331 377 q 369 434 369 496 q 369 539 338 569 q 307 600 263 600 q 219 600 182 577 q 166 567 139 535 q 111 503 94 503 z"},"{":{"x_min":0,"x_max":378,"ha":378,"o":"m 229 117 l 228 32 q 228 -25 241 -49 q 255 -74 288 -91 q 321 -109 321 -140 q 321 -148 290 -148 q 259 -148 226 -132 q 192 -116 170 -84 q 147 -52 147 49 q 147 65 148 73 l 149 98 q 151 134 151 169 q 151 204 135 226 q 118 248 90 262 q 62 277 62 290 l 62 300 q 62 311 94 328 q 125 346 138 370 q 151 394 151 458 l 150 481 q 147 531 147 567 q 147 647 182 687 q 203 710 235 723 q 267 736 294 736 q 322 736 322 726 q 322 705 293 685 q 250 655 242 639 q 228 612 228 540 l 230 457 q 230 348 166 309 q 149 298 149 297 q 149 297 175 276 q 200 256 215 226 q 229 196 229 117 z"},"9":{"x_min":0,"x_max":553,"ha":553,"o":"m 149 477 l 149 466 q 149 395 184 353 q 219 312 263 312 l 271 312 l 276 312 q 327 312 366 358 q 392 389 392 444 l 392 463 q 392 525 358 576 q 324 626 272 626 l 263 626 q 217 626 183 584 q 149 541 149 477 z m 144 72 l 185 70 q 220 70 256 85 q 332 115 364 193 q 380 231 380 262 q 380 292 359 292 q 356 292 321 281 q 285 271 253 271 q 222 271 185 287 q 147 304 119 334 q 91 365 77 404 q 64 443 64 475 l 64 487 q 64 569 115 625 q 169 684 248 684 l 260 684 q 311 684 354 662 q 440 618 474 507 q 492 451 492 379 q 492 308 471 240 q 430 105 324 47 q 267 16 214 16 l 193 16 q 147 16 120 34 q 107 42 107 51 q 107 72 144 72 z"}," ":{"x_min":0,"x_max":321,"ha":321,"o":""},"I":{"x_min":0,"x_max":322,"ha":322,"o":"m 168 6 l 141 6 q 112 6 94 19 q 75 31 75 47 q 75 62 91 86 q 106 109 110 139 q 114 168 114 349 q 114 530 112 555 q 109 580 92 608 q 76 635 76 649 q 76 664 92 677 q 109 691 139 691 l 192 691 q 217 691 233 677 q 249 664 249 650 q 249 637 232 610 q 216 583 212 553 q 208 523 208 340 q 208 157 212 134 q 216 110 232 87 q 248 64 248 44 q 248 24 217 11 q 205 6 168 6 z"},"H":{"x_min":0,"x_max":699,"ha":699,"o":"m 124 17 q 71 17 71 54 q 71 55 83 84 q 94 114 96 139 q 98 165 98 267 l 98 328 l 99 348 l 99 388 l 99 429 q 99 550 90 580 l 85 594 q 76 620 76 621 q 76 646 93 658 q 110 670 148 670 q 187 670 206 657 q 225 644 225 624 q 225 616 218 593 q 206 550 206 451 q 206 399 241 387 q 269 378 369 378 q 469 378 487 397 q 504 417 504 503 q 504 556 495 585 q 487 615 487 618 q 487 641 505 658 q 523 674 564 674 l 582 674 q 609 674 620 662 q 630 649 630 632 l 627 618 l 615 592 q 609 576 606 535 q 602 494 602 333 q 602 171 603 148 q 604 125 610 106 l 615 92 q 625 69 625 65 q 625 38 609 29 q 593 20 559 20 q 524 20 508 29 q 479 45 479 72 q 479 79 485 100 q 491 121 494 139 q 497 158 497 207 l 497 227 q 498 247 498 267 q 498 309 475 323 q 453 338 343 338 q 233 338 211 314 q 195 296 195 228 q 195 160 198 140 q 201 120 207 100 q 212 81 212 74 q 212 45 190 31 q 169 17 142 17 z"},"4":{"x_min":0,"x_max":557,"ha":557,"o":"m 329 528 l 329 553 l 329 555 q 328 555 224 404 q 120 252 120 250 l 120 248 q 120 244 194 244 l 207 244 l 224 244 l 228 244 l 259 245 q 272 247 280 247 q 313 247 318 261 q 325 283 325 423 l 327 474 l 327 483 z m 313 78 l 316 118 q 316 148 245 170 q 225 176 158 179 q 91 183 81 188 q 57 200 57 234 q 57 252 70 277 q 128 385 303 623 q 343 676 372 676 q 401 676 409 659 q 413 650 413 599 l 411 522 l 410 500 l 410 478 l 409 456 q 409 445 409 435 q 409 325 422 294 q 434 263 458 244 q 481 226 481 221 q 481 186 459 170 q 422 143 422 127 q 422 125 425 106 q 428 86 428 61 q 428 35 416 18 q 404 1 365 1 l 355 1 q 313 1 313 78 z"},"~":{"x_min":0,"x_max":583,"ha":583,"o":"m 528 388 l 528 376 q 528 336 478 297 q 442 269 401 269 l 396 269 q 354 269 286 309 q 218 348 184 348 q 150 348 124 320 q 83 276 77 276 q 57 276 57 299 q 57 346 112 390 q 145 416 189 416 l 195 415 q 233 415 304 375 q 375 336 404 336 q 434 336 461 363 q 503 405 508 405 q 528 405 528 388 z"},"D":{"x_min":0,"x_max":689,"ha":689,"o":"m 207 143 l 207 120 q 207 90 217 83 q 237 69 289 69 l 296 69 q 399 69 456 135 q 486 170 505 224 q 524 277 524 338 l 524 366 q 524 419 508 470 q 491 521 460 558 q 400 627 300 627 l 292 627 q 216 627 209 603 q 208 600 208 567 l 208 527 l 208 511 q 208 503 208 496 l 209 479 l 209 254 l 208 230 l 208 207 l 208 199 l 208 183 z m 122 470 l 121 516 q 121 598 97 646 q 91 658 91 661 l 91 668 q 91 688 171 688 l 182 688 q 192 688 203 688 l 224 689 q 246 690 257 690 l 313 690 q 446 690 526 613 q 569 571 596 507 q 623 443 623 362 l 623 350 l 623 337 q 623 271 596 202 q 542 67 414 23 q 362 6 283 6 l 218 6 q 133 6 107 14 q 91 19 91 35 q 91 38 101 59 q 110 79 115 104 q 121 128 121 180 l 121 191 q 122 203 122 215 l 122 238 z"},"^":{"x_min":0,"x_max":525,"ha":525,"o":"m 219 661 q 241 695 264 695 q 288 695 311 659 q 312 658 334 618 q 357 578 365 564 q 372 551 388 523 q 403 496 419 466 q 436 437 454 405 q 472 374 472 370 q 472 359 446 359 q 419 359 393 395 q 378 415 321 514 q 264 613 264 613 q 257 613 199 510 q 140 408 122 385 q 103 363 78 363 q 53 363 53 370 q 53 397 219 661 z"},"0":{"x_min":0,"x_max":559,"ha":559,"o":"m 399 338 l 399 363 q 399 484 368 552 q 336 622 281 622 l 275 622 q 254 622 231 605 q 208 588 195 560 q 157 480 157 374 l 156 357 l 156 307 q 156 193 188 125 q 221 57 269 57 l 281 57 q 305 57 327 75 q 349 94 364 125 q 398 197 398 297 l 399 313 z m 271 -3 q 271 -3 270 -3 q 230 -3 194 17 q 119 58 89 179 q 71 251 71 316 l 71 358 q 71 419 87 483 q 103 548 130 593 q 187 683 279 683 l 288 683 q 333 683 372 659 q 412 637 439 590 q 493 500 493 366 l 493 334 q 493 332 493 330 q 493 257 476 194 q 441 68 366 21 q 327 -3 280 -3 z"},"F":{"x_min":0,"x_max":543,"ha":543,"o":"m 114 263 l 112 367 q 112 406 108 479 q 104 552 101 569 q 97 587 90 609 q 83 630 83 634 l 83 644 q 83 667 141 676 q 199 684 329 684 l 403 684 q 463 684 484 672 q 504 661 504 628 q 504 596 485 596 q 476 596 446 604 q 382 624 290 624 q 288 624 286 624 q 231 624 216 601 q 200 579 200 509 q 200 439 211 423 q 228 400 276 400 q 301 400 333 407 q 364 415 369 415 q 391 415 410 392 q 428 370 428 336 q 428 294 389 294 q 386 295 367 299 q 336 306 295 306 q 229 306 212 275 q 198 251 198 188 q 198 125 201 113 q 204 100 208 83 q 212 66 212 55 q 212 43 201 32 q 190 20 165 20 l 152 20 q 112 20 98 36 q 83 53 83 82 q 83 85 96 111 q 108 137 111 158 q 114 179 114 263 z"},"`":{"x_min":0,"x_max":370,"ha":370,"o":"m 240 564 l 235 564 q 212 564 170 601 q 81 679 81 710 l 81 712 q 81 725 120 725 l 122 724 q 155 724 176 703 q 180 699 241 608 q 257 583 257 574 q 257 564 240 564 z"},"k":{"x_min":0,"x_max":519,"ha":519,"o":"m 184 152 l 192 76 q 192 57 176 42 q 159 27 130 27 q 100 27 87 35 q 73 44 73 73 q 73 77 76 96 l 77 108 q 84 151 84 199 l 84 289 l 84 322 l 84 405 l 85 422 l 85 538 q 85 620 75 651 q 65 682 65 692 q 65 710 109 710 l 124 710 q 157 710 164 674 q 167 658 167 514 q 167 371 173 339 q 178 307 192 307 q 214 307 269 370 q 279 381 303 413 q 327 445 339 455 q 366 474 414 474 q 438 474 438 462 q 438 451 369 385 q 300 319 300 289 q 300 259 390 143 q 419 104 451 75 q 483 46 483 28 q 483 14 437 14 l 422 14 q 388 14 373 27 q 358 41 341 73 q 324 105 301 136 q 236 228 220 228 q 207 228 196 210 q 184 193 184 152 z"},"u":{"x_min":0,"x_max":550,"ha":550,"o":"m 480 37 q 465 21 439 21 q 414 21 395 35 q 375 50 368 50 q 361 50 317 27 q 273 3 230 3 q 142 3 103 73 q 77 118 77 272 q 77 348 74 374 q 72 401 63 426 q 54 451 54 456 q 54 481 98 481 q 142 481 152 454 q 159 434 159 296 q 159 157 176 119 q 186 95 207 82 q 228 68 257 68 q 287 68 317 84 q 348 101 367 138 q 387 175 387 312 q 387 375 381 403 q 375 432 375 438 q 375 460 389 469 q 403 478 444 478 q 465 478 471 457 q 474 447 474 400 l 473 363 q 473 351 473 340 q 473 329 471 299 q 469 269 469 238 l 469 194 l 470 181 q 470 167 470 150 q 470 118 478 88 q 486 58 486 50 q 486 42 480 37 z"},"]":{"x_min":0,"x_max":345,"ha":345,"o":"m 94 -143 l 83 -143 q 54 -143 54 -124 q 54 -102 98 -92 q 143 -83 153 -76 q 163 -69 169 -44 q 175 -19 175 296 q 175 610 167 641 q 159 672 106 682 q 52 692 52 715 q 52 734 85 734 l 96 734 q 176 734 203 728 q 231 722 238 697 q 245 672 245 318 l 245 258 l 244 247 l 244 65 l 244 29 q 244 11 244 -7 l 243 -30 l 242 -54 q 242 -115 222 -129 q 201 -143 94 -143 z"},"U":{"x_min":0,"x_max":679,"ha":679,"o":"m 120 682 l 136 682 q 168 682 181 676 q 203 666 203 636 q 203 628 198 611 q 186 563 186 504 l 185 470 q 184 453 184 434 l 184 417 q 183 399 183 380 l 183 362 q 183 344 183 291 q 183 171 218 120 q 242 85 275 72 q 308 59 352 59 q 395 59 432 82 q 500 124 514 226 q 520 269 520 386 q 520 557 514 592 l 508 619 q 504 638 504 644 q 504 665 518 673 q 531 682 560 682 q 588 682 599 672 q 619 652 619 629 l 619 615 q 619 612 606 574 q 593 535 592 492 q 590 450 590 342 q 590 234 582 184 q 564 69 467 22 q 411 -4 341 -4 q 192 -4 133 91 q 105 135 99 190 q 92 246 92 406 l 92 443 l 92 496 l 92 514 q 90 542 84 560 l 73 585 q 65 605 65 612 q 65 645 85 668 q 97 682 120 682 z"},"o":{"x_min":0,"x_max":548,"ha":548,"o":"m 400 237 l 400 261 q 400 339 365 393 q 330 447 279 447 l 269 447 q 221 447 188 393 q 155 338 155 259 l 155 253 l 155 247 q 155 170 190 111 q 206 84 229 70 q 252 55 273 55 l 288 55 q 330 55 365 105 q 399 155 399 225 z m 72 234 l 72 259 q 72 309 90 356 q 124 449 195 486 q 235 507 276 507 l 283 507 l 291 507 q 372 507 430 439 q 456 410 472 363 q 488 315 488 270 l 488 252 l 488 244 q 488 196 472 151 q 440 59 365 20 q 326 0 285 0 l 270 0 l 262 0 q 225 0 188 19 q 119 55 89 141 q 72 189 72 234 z"},"N":{"x_min":0,"x_max":703,"ha":703,"o":"m 97 249 l 98 380 q 98 413 98 473 q 98 580 89 616 q 79 652 79 658 q 79 673 107 673 q 173 673 235 598 q 251 579 389 381 q 527 182 535 182 q 542 182 542 280 l 542 421 l 542 464 q 542 485 542 522 q 542 575 533 606 q 525 638 525 645 q 525 680 564 680 l 583 680 q 607 680 621 661 q 635 641 635 626 q 635 610 624 562 q 612 515 611 441 q 609 367 609 211 q 609 55 607 44 q 602 16 576 16 q 542 16 489 86 q 455 131 329 322 q 204 513 186 513 q 168 513 168 360 q 168 207 169 187 q 170 167 178 128 q 186 89 186 74 q 186 46 161 28 q 136 10 110 10 q 83 10 74 16 q 65 22 65 35 q 65 48 77 75 q 88 102 93 128 q 97 154 97 249 z"},"+":{"x_min":0,"x_max":580,"ha":580,"o":"m 52 295 l 52 313 q 52 333 66 337 q 74 339 160 339 q 246 339 251 343 q 256 347 256 427 q 256 507 260 519 q 265 530 288 530 l 297 530 q 319 530 322 518 q 324 512 324 431 q 324 350 326 345 q 329 340 428 340 q 528 340 528 322 l 528 304 q 528 285 512 282 q 503 280 417 280 q 332 280 326 276 q 321 272 321 189 q 321 106 318 97 q 314 87 287 87 q 261 87 257 99 q 256 104 256 186 q 256 267 254 270 q 250 277 151 277 q 52 277 52 295 z"},"G":{"x_min":0,"x_max":699,"ha":699,"o":"m 441 301 q 441 327 533 327 q 625 327 625 288 q 625 285 619 257 q 613 229 611 215 l 609 197 l 603 106 q 599 75 587 60 q 575 45 531 37 q 518 35 467 18 q 416 1 377 1 l 358 1 q 290 1 234 27 q 122 79 80 193 q 54 263 54 331 l 54 352 q 54 421 80 486 q 130 615 246 666 q 303 690 358 690 l 378 690 q 407 690 471 677 q 534 665 552 654 q 570 643 586 619 q 602 595 602 578 q 602 535 577 535 q 567 535 530 564 q 456 623 372 623 l 371 623 q 274 623 213 546 q 155 474 155 344 q 155 222 221 145 q 250 111 290 91 q 331 71 377 71 q 442 71 480 106 q 517 141 517 192 q 517 238 469 273 q 441 293 441 301 z"},"q":{"x_min":0,"x_max":556,"ha":556,"o":"m 268 63 l 276 63 q 297 63 323 81 q 348 98 360 120 q 383 163 383 262 l 383 273 q 383 371 361 405 q 331 452 281 452 l 276 452 l 271 451 q 224 451 189 398 q 155 345 155 267 l 155 242 q 155 168 189 116 q 223 63 268 63 z m 473 2 q 474 -9 474 -29 q 474 -50 486 -82 q 499 -115 499 -128 q 499 -159 482 -170 q 465 -181 436 -181 q 407 -181 392 -167 q 376 -153 376 -128 q 376 -127 385 -94 q 394 -61 394 -29 q 394 3 381 13 q 368 23 350 23 q 332 23 307 20 q 281 17 248 17 q 215 17 180 38 q 113 77 85 160 q 69 207 69 255 l 69 268 q 69 370 121 434 q 178 506 255 506 l 266 506 q 296 506 342 487 q 389 468 391 468 q 393 468 408 478 q 421 485 431 485 q 449 485 459 461 q 465 448 465 322 l 468 206 q 468 194 468 183 l 469 160 l 470 115 l 471 103 l 472 36 q 473 24 473 14 z"},"d":{"x_min":0,"x_max":558,"ha":558,"o":"m 380 245 l 380 290 q 379 300 379 306 q 379 373 351 409 q 322 445 275 445 l 271 445 q 220 445 188 391 q 157 336 157 260 l 157 242 q 157 164 187 113 q 216 62 266 62 l 271 62 q 293 62 317 76 q 341 90 356 115 q 380 156 380 245 z m 471 461 l 468 370 l 464 276 q 462 218 462 181 q 462 121 469 88 q 476 55 476 53 q 476 23 427 23 q 412 23 396 34 q 380 45 360 45 q 355 45 316 26 q 278 6 244 6 l 233 6 q 161 6 117 67 q 74 127 74 230 q 74 341 134 417 q 193 491 289 491 l 347 488 q 370 488 377 500 q 383 512 383 555 q 383 597 381 610 q 378 623 374 637 q 370 651 370 666 q 370 682 387 694 q 404 706 435 706 q 465 706 471 679 q 472 672 472 539 l 472 506 q 472 495 472 483 z"},"1":{"x_min":0,"x_max":516,"ha":516,"o":"m 233 220 l 234 239 l 234 309 q 234 466 214 517 q 204 545 174 554 q 127 568 127 572 q 127 588 150 602 q 242 659 283 659 q 311 659 317 620 q 323 582 323 394 q 323 206 327 179 q 332 152 353 113 q 375 74 375 56 q 375 38 350 21 q 326 4 299 4 l 281 4 q 244 4 225 15 q 179 39 179 65 q 179 82 206 124 q 233 166 233 220 z"},"5":{"x_min":0,"x_max":546,"ha":546,"o":"m 227 358 l 145 354 q 96 354 96 414 q 96 474 112 548 q 128 622 138 634 q 159 661 272 661 q 303 661 334 662 l 380 664 q 402 666 409 666 l 423 666 q 451 666 451 642 q 451 607 419 596 q 402 590 313 590 q 224 590 207 577 q 175 552 175 474 q 175 446 182 436 q 188 426 220 426 l 249 427 q 354 427 417 367 q 444 341 460 303 q 476 265 476 229 l 476 213 q 476 173 461 131 q 445 90 413 58 q 347 -9 243 -9 q 179 -9 124 21 q 68 51 68 82 q 68 113 94 113 q 112 113 153 83 q 194 53 252 53 q 311 53 349 98 q 386 142 386 211 q 386 280 340 319 q 293 358 227 358 z"}}}
